#!OML:ASF E:\emotionWalksFemale\Project 1\Capture day 1\Session 1\Female1.ASF
:FULLY-SPECIFIED
:DEGREES
221
root 9.80286 15.3592 -38.6926 1.16273 0.611825 0.333495
lowerback 6.48774 0.941906 -0.0196247
upperback -4.85569 1.24479 -0.246263
thorax -8.76585 0.599817 -0.423402
lowerneck -8.7703 -3.43134 -5.91462
upperneck 22.6624 -4.60087 3.74331
head 8.72933 -2.29775 1.79377
rclavicle 3.48184e-015 -2.11457e-014
rhumerus -45.5611 14.3185 -94.8754
rradius 34.7216
rwrist 13.016
rhand -1.18505 -53.7946
rfingers 7.12502
rthumb 24.4548 -82.2536
lclavicle 3.48184e-015 -2.11457e-014
lhumerus -45.0669 -7.55184 92.3619
lradius 39.271
lwrist -10.4138
lhand -2.02802 -31.382
lfingers 7.12502
lthumb 23.6465 -2.81627
rfemur -4.68965 16.9129 22.7258
rtibia 26.7232
rfoot -22.6814 -31.4467
rtoes -10.2823
lfemur -8.72135 -19.4376 -26.2005
ltibia 29.647
lfoot -26.9892 19.1066
ltoes -16.906
222
root 9.82128 15.3584 -38.7002 1.08306 0.740734 0.349404
lowerback 6.91286 0.910257 0.114724
upperback -4.89077 1.21155 -0.307696
thorax -9.05096 0.571494 -0.567955
lowerneck -8.82332 -3.33178 -5.7868
upperneck 22.6226 -4.50512 3.85393
head 8.71881 -2.22989 1.81924
rclavicle -1.96517e-014 -1.00635e-014
rhumerus -45.5031 13.8181 -94.4279
rradius 34.6763
rwrist 13.2825
rhand -1.1494 -53.6869
rfingers 7.12502
rthumb 24.489 -82.1413
lclavicle -1.96517e-014 -1.00635e-014
lhumerus -45.2422 -7.83811 92.4237
lradius 39.3815
lwrist -10.3394
lhand -2.05762 -31.1617
lfingers 7.12502
lthumb 23.6181 -2.59229
rfemur -4.79944 16.5674 22.5806
rtibia 26.9843
rfoot -22.7703 -31.2453
rtoes -10.2925
lfemur -8.63806 -19.4226 -26.3197
ltibia 29.5887
lfoot -26.8849 19.1531
ltoes -17.5231
223
root 9.83949 15.3534 -38.682 0.775008 0.730676 0.311648
lowerback 6.91236 0.893225 0.156855
upperback -4.67716 1.19947 -0.225844
thorax -8.81868 0.56717 -0.500278
lowerneck -8.93624 -3.19532 -5.78214
upperneck 22.5127 -4.30676 3.865
head 8.6913 -2.13303 1.84131
rclavicle -9.90041e-016 -2.5755e-014
rhumerus -45.2457 13.6609 -93.9595
rradius 34.5276
rwrist 13.2451
rhand -1.34987 -53.7811
rfingers 7.12502
rthumb 24.2968 -82.2614
lclavicle -9.90041e-016 -2.5755e-014
lhumerus -45.2607 -7.90967 92.5551
lradius 39.4447
lwrist -10.1659
lhand -1.95639 -30.9487
lfingers 7.12502
lthumb 23.7152 -2.39187
rfemur -4.53107 16.3537 22.631
rtibia 27.2839
rfoot -22.9688 -30.9286
rtoes -10.1691
lfemur -8.12938 -19.3402 -26.5075
ltibia 29.5311
lfoot -27.1532 19.1433
ltoes -18.0167
224
root 9.8593 15.3548 -38.6738 0.866928 0.820184 0.372753
lowerback 6.86995 0.862748 0.121896
upperback -4.70079 1.15795 -0.186841
thorax -8.82127 0.55047 -0.432916
lowerneck -8.92439 -3.10944 -5.81189
upperneck 22.4095 -4.17821 3.86571
head 8.64756 -2.07458 1.85991
rclavicle -1.10263e-014 1.87106e-014
rhumerus -45.1183 13.4739 -93.5308
rradius 34.5384
rwrist 12.9223
rhand -1.49117 -53.8553
rfingers 7.12502
rthumb 24.1613 -82.3536
lclavicle -1.10263e-014 1.87106e-014
lhumerus -45.3236 -7.85876 92.6108
lradius 39.4943
lwrist -9.99926
lhand -1.48673 -31.1059
lfingers 7.12502
lthumb 24.1656 -2.60812
rfemur -4.83712 15.6913 22.3561
rtibia 27.6574
rfoot -22.9484 -30.3081
rtoes -10.6598
lfemur -8.1738 -19.1998 -26.6099
ltibia 29.4564
lfoot -27.2734 18.9534
ltoes -18.6675
225
root 9.88091 15.3511 -38.6767 0.761606 1.04453 0.45704
lowerback 7.34242 0.842979 0.0694192
upperback -4.77965 1.12669 -0.17968
thorax -9.1877 0.53691 -0.400742
lowerneck -8.826 -3.10864 -5.75267
upperneck 22.3773 -4.179 3.80987
head 8.61582 -2.07643 1.83216
rclavicle 1.33714e-014 5.34234e-015
rhumerus -45.1576 13.0317 -92.9688
rradius 34.3267
rwrist 13.4493
rhand -1.9711 -53.3531
rfingers 7.12502
rthumb 23.7011 -81.9118
lclavicle 1.33714e-014 5.34234e-015
lhumerus -45.5318 -7.98503 92.7303
lradius 39.455
lwrist -10.0753
lhand -1.69938 -31.8069
lfingers 7.12502
lthumb 23.9617 -3.2822
rfemur -4.98228 14.9305 22.1131
rtibia 28.107
rfoot -23.0049 -29.8284
rtoes -11.0818
lfemur -8.03446 -19.0265 -26.7796
ltibia 29.359
lfoot -27.232 18.5481
ltoes -18.9646
226
root 9.90854 15.3504 -38.6689 0.783223 0.97334 0.495467
lowerback 7.29294 0.908033 0.135548
upperback -4.74116 1.2213 -0.182335
thorax -9.11435 0.579022 -0.453569
lowerneck -8.69892 -3.11728 -5.67025
upperneck 22.193 -4.19063 3.73872
head 8.52682 -2.08303 1.79407
rclavicle 1.71762e-015 6.65929e-015
rhumerus -45.0286 12.6638 -92.4246
rradius 34.2855
rwrist 13.7695
rhand -2.1125 -53.1982
rfingers 7.12502
rthumb 23.5655 -81.7744
lclavicle 1.71762e-015 6.65929e-015
lhumerus -45.6499 -8.15344 92.8607
lradius 39.6253
lwrist -9.95515
lhand -1.8913 -31.795
lfingers 7.12502
lthumb 23.7776 -3.24626
rfemur -5.31792 14.2352 21.8351
rtibia 28.613
rfoot -22.7687 -29.3303
rtoes -11.9607
lfemur -7.95203 -18.8695 -26.9471
ltibia 29.2214
lfoot -27.1448 18.6036
ltoes -20.0646
227
root 9.93144 15.3462 -38.6666 0.84761 1.13619 0.529456
lowerback 6.80807 0.881452 0.0265659
upperback -4.42949 1.18277 -0.0544331
thorax -8.49482 0.574159 -0.238642
lowerneck -8.64864 -3.11444 -5.80365
upperneck 21.6957 -4.1558 3.76196
head 8.35112 -2.07428 1.82673
rclavicle 2.54072e-015 1.93815e-014
rhumerus -44.426 12.6047 -91.7402
rradius 34.4078
rwrist 13.5926
rhand -1.65888 -53.5079
rfingers 7.12502
rthumb 24.0005 -82.0275
lclavicle 2.54072e-015 1.93815e-014
lhumerus -45.1667 -8.09782 93.01
lradius 39.6443
lwrist -10.0134
lhand -2.16304 -31.3037
lfingers 7.12502
lthumb 23.517 -2.72127
rfemur -5.69355 13.4847 21.5979
rtibia 29.1487
rfoot -22.441 -28.9844
rtoes -13.0303
lfemur -7.97503 -18.7862 -27.0668
ltibia 29.0827
lfoot -26.8811 18.7773
ltoes -22.056
228
root 9.9502 15.3459 -38.6667 1.02424 1.43972 0.562618
lowerback 7.34639 0.804212 0.0788618
upperback -4.7909 1.08225 -0.104231
thorax -9.20393 0.517516 -0.319426
lowerneck -8.5841 -3.084 -5.77884
upperneck 21.9212 -4.14879 3.85554
head 8.41603 -2.06119 1.85655
rclavicle 8.01972e-015 -7.8023e-015
rhumerus -44.7648 12.1745 -91.4289
rradius 34.5421
rwrist 13.4607
rhand -1.14726 -53.7569
rfingers 7.12502
rthumb 24.491 -82.211
lclavicle 8.01972e-015 -7.8023e-015
lhumerus -45.6933 -8.23077 93.0142
lradius 39.705
lwrist -10.048
lhand -2.15867 -31.2135
lfingers 7.12502
lthumb 23.5212 -2.63166
rfemur -6.18523 12.9511 21.3916
rtibia 29.735
rfoot -22.3495 -28.7609
rtoes -13.194
lfemur -8.11045 -18.7854 -27.0846
ltibia 28.9025
lfoot -26.934 18.4101
ltoes -21.9715
229
root 9.97567 15.34 -38.6493 0.83729 1.4257 0.571444
lowerback 7.58189 0.822463 0.248139
upperback -4.80065 1.12161 -0.164643
thorax -9.34927 0.522808 -0.488866
lowerneck -8.69809 -3.05157 -5.66504
upperneck 22.0976 -4.12538 3.8693
head 8.4929 -2.03827 1.84378
rclavicle -3.78933e-016 -2.38542e-014
rhumerus -44.8571 11.8427 -91.1267
rradius 34.3701
rwrist 13.978
rhand -1.38273 -53.3914
rfingers 7.12502
rthumb 24.2653 -81.8759
lclavicle -3.78933e-016 -2.38542e-014
lhumerus -46.0314 -8.33909 92.956
lradius 39.8224
lwrist -10.0344
lhand -1.92526 -31.251
lfingers 7.12502
lthumb 23.7451 -2.69806
rfemur -6.29184 12.6157 21.2809
rtibia 30.4093
rfoot -22.3955 -28.4833
rtoes -13.5012
lfemur -7.68495 -18.8354 -27.2788
ltibia 28.688
lfoot -27.3856 18.0419
ltoes -19.9735
230
root 9.99854 15.3409 -38.6412 0.975134 1.39388 0.685734
lowerback 7.11502 0.87214 -0.0283532
upperback -4.57827 1.1673 -0.0253966
thorax -8.83881 0.569699 -0.182026
lowerneck -8.91849 -3.03691 -5.69621
upperneck 21.8349 -4.05032 3.74342
head 8.43914 -2.01402 1.8104
rclavicle 4.02539e-015 9.24349e-015
rhumerus -44.4479 11.8696 -90.5123
rradius 34.3884
rwrist 14.0264
rhand -1.3647 -53.4895
rfingers 7.12502
rthumb 24.2826 -81.9716
lclavicle 4.02539e-015 9.24349e-015
lhumerus -45.6945 -8.18358 93.0884
lradius 39.7385
lwrist -10.1598
lhand -2.18397 -31.1862
lfingers 7.12502
lthumb 23.4969 -2.60125
rfemur -6.87342 12.0989 20.9512
rtibia 31.1541
rfoot -22.3499 -28.0469
rtoes -14.0972
lfemur -7.67267 -18.7658 -27.4519
ltibia 28.4265
lfoot -27.5878 17.9221
ltoes -19.2854
231
root 10.0196 15.3385 -38.6395 0.893099 1.71343 0.902884
lowerback 6.92325 0.823857 -0.331625
upperback -4.27743 1.07446 0.038767
thorax -8.40675 0.545113 0.0757236
lowerneck -8.72032 -3.14586 -5.95704
upperneck 21.3223 -4.17987 3.86764
head 8.24565 -2.08518 1.88318
rclavicle 4.88265e-015 4.27387e-015
rhumerus -43.9503 11.705 -89.8807
rradius 34.42
rwrist 14.0516
rhand -1.25528 -53.7538
rfingers 7.12502
rthumb 24.3875 -82.2219
lclavicle 4.88265e-015 4.27387e-015
lhumerus -45.1566 -8.08592 93.142
lradius 39.4098
lwrist -10.3504
lhand -2.61103 -31.5306
lfingers 7.12502
lthumb 23.0872 -2.89375
rfemur -7.22792 11.2754 20.5827
rtibia 32.0198
rfoot -22.2706 -27.7082
rtoes -14.6731
lfemur -7.43497 -18.6655 -27.7884
ltibia 28.12
lfoot -27.407 17.6421
ltoes -19.8091
